<svg xmlns="http://www.w3.org/2000/svg" viewBox="0 0 48 48" fill="#888888"><g id="magic_wand" data-name="magic wand"><path d="M22,8.27l-.78-.56A3,3,0,0,0,17,8.42L5.43,24.68a3,3,0,0,0,.71,4.21l.79.56A3,3,0,0,0,8.67,30a3,3,0,0,0,2.47-1.27l1.67-2.36a1,1,0,1,0-1.62-1.16L9.51,27.58a1,1,0,0,1-1.42.24l-.79-.56a1,1,0,0,1-.24-1.42l8.7-12.2,2.44,1.74-4.3,6a1,1,0,0,0,1.62,1.16l7.2-10.1a3,3,0,0,0,.52-2.25A3,3,0,0,0,22,8.27Zm-.92,3.05-1.73,2.43h0L16.92,12l1.73-2.43a1,1,0,0,1,.66-.41,1,1,0,0,1,.76.17l.78.56a1,1,0,0,1,.41.66A1,1,0,0,1,21.09,11.32Z"/><path d="M24.17,8.22A1,1,0,0,0,25,7.07L24.8,6l1.11-.18a1,1,0,0,0-.33-2L24.47,4l-.18-1.11a1,1,0,0,0-2,.33l.19,1.11-1.11.19a1,1,0,0,0,.17,2h.16l1.11-.19L23,7.4a1,1,0,0,0,1,.83Z"/><path d="M11.79,8.13H12l1.11-.19L13.25,9a1,1,0,0,0,1,.83h.16a1,1,0,0,0,.83-1.15L15,7.6l1.11-.18a1,1,0,1,0-.34-2l-1.1.19-.19-1.11a1,1,0,0,0-2,.33L12.74,6l-1.11.19a1,1,0,0,0,.16,2Z"/><path d="M28.38,11.94l-1.11.18L27.08,11a1,1,0,0,0-2,.33l.19,1.1-1.11.19a1,1,0,0,0,.17,2l.16,0,1.11-.18.18,1.1a1,1,0,0,0,1,.84l.17,0a1,1,0,0,0,.82-1.15l-.19-1.1,1.11-.19a1,1,0,0,0-.33-2Z"/></g></svg>